<svg xmlns="http://www.w3.org/2000/svg" viewBox="0 0 722.62 314.26"><path d="M602.34,117.48H569.18V275.14H490.43V117.56h-34.9V275.11H376.71V38.47h2.48q149.61,0,299.21,0c2.28,0,2.85.63,2.85,2.87q-.09,115.55,0,231.09v2.74H602.34Z"/><path d="M199.5,196.23c-.06,1.09-.18,2.18-.18,3.27q0,36.28,0,72.57v3H42V39.37H277.77V196.29c-.63.06-1.3.16-2,.16q-37.38,0-74.75,0c-.54,0-1.09-.1-1.63-.15-.06-.93-.15-1.86-.15-2.79q0-36.4,0-72.8V118H120.74v78.38h76.19C197.79,196.4,198.64,196.29,199.5,196.23Z"/><path d="M366.64,275.22H288.32V39.33h78.32Z"/></svg>