<svg xmlns="http://www.w3.org/2000/svg" viewBox="0 0 710 437"><path d="M40.54,202c2.29-3.81,1.69-8.22,2.44-12.34,6.27-34,24.62-60.17,51.71-80.73,26.62-20.19,56.95-32.45,88.94-41A410.57,410.57,0,0,1,282.23,54c3.65-.08,4.65.69,4.65,4.52q-.18,162.12-.09,324.23c0,2.54.55,4.74-3.65,4.38C222.43,382,164.56,367.57,112.51,334.6c-23.67-15-43.32-34.15-56.64-59.17A129.66,129.66,0,0,1,41.54,227.5c-.12-1.18.66-2.72-1-3.5v-8c1-1.33.53-2.66,0-4Zm203.12,19.68a56,56,0,0,0-55.85-56.36c-31-.18-56.31,25.33-56.22,56.62.08,30.58,25.49,55.67,56.24,55.52A55.75,55.75,0,0,0,243.66,221.69Z" style="fill:#010101"/><path d="M40.54,212c.53,1.34,1,2.67,0,4Z" style="fill:#844afe"/><path d="M669.46,252.94c-.07,70.52-49.34,124.87-114.3,131.13-37.86,3.65-70.71-8.06-99-33.3-2.51-2.25-2.75-3.49-.16-6.07q86.67-86.38,173.09-173c2.63-2.65,3.89-2.78,6.45.06C657.81,196.35,669.13,225.17,669.46,252.94Z" style="fill:#010101"/><path d="M661.43,90.58a55.37,55.37,0,0,0-4.71,3.68Q570.82,180.08,485,266c-3.17,3.18-4.59,3.16-7.5-.19-32.38-37.26-42.06-79.84-26.32-126.36s49.52-75,97.91-83.92c40.37-7.41,76.36,3.89,107.25,31C657.76,87.77,659.24,88.85,661.43,90.58Z" style="fill:#010101"/><path d="M313.12,155.12c28.56,31.1,75.42,28.39,101.26,1.2v4.77q0,110.13.12,220.24c0,4.5-1.17,5.43-5.49,5.4-30.47-.2-60.94-.14-91.41-.05-3.12,0-4.73-.27-4.73-4.15q.18-112.36.1-224.74C313,157,313.05,156.23,313.12,155.12Z" style="fill:#020202"/><path d="M408.46,127.05a33.05,33.05,0,0,1-8.9,12.27c-.46-3-2.85-2.34-4.68-2.24a79.39,79.39,0,0,1-20.28-1.31c-18.64-3.8-36.25-10.24-51.47-22.22-3-2.38-5.53-5.83-9.79-6.45a29.09,29.09,0,0,1,1.09-14,4,4,0,0,1,3,1.49c10.25,11,22.72,18.67,36.52,24.2a100.82,100.82,0,0,0,39.91,7.6C398.66,126.26,403.74,124.53,408.46,127.05Z" style="fill:#4e02fe"/><path d="M313.34,107.1c4.26.62,6.76,4.07,9.79,6.45,15.22,12,32.83,18.42,51.47,22.22a79.39,79.39,0,0,0,20.28,1.31c1.83-.1,4.22-.77,4.68,2.24a32,32,0,0,1-11.8,8.85c-3.06-1.34-6.35-1.68-9.62-2.13a129,129,0,0,1-45.06-14.48c-5.29-2.9-9.87-7.35-16.16-8.35C314.54,118.1,313,112.81,313.34,107.1Z" style="fill:#3e02fe"/><path d="M327.27,69a19.75,19.75,0,0,1,7-6,50.92,50.92,0,0,1,5.15,4.67c9.1,10.7,20.81,17.27,34,21.38,12.78,4,25.76,4,38.78,1.07A22.35,22.35,0,0,1,413.78,99c-1.82.07-3.79-.26-5.45.3-8.83,3-17.88,1.78-26.55.41-19.34-3-36.12-11.52-49-26.78C331.32,71.24,329.94,69.14,327.27,69Z" style="fill:#7a3bfe"/><path d="M327.27,69c2.67.15,4.05,2.25,5.5,4,12.89,15.26,29.67,23.73,49,26.78,8.67,1.37,17.72,2.6,26.55-.41,1.66-.56,3.63-.23,5.45-.3a16.26,16.26,0,0,1,.28,8c-4.83-.56-9.53.75-14.3,1a91.55,91.55,0,0,1-53.43-13.63,85.28,85.28,0,0,1-23-20.82A11.06,11.06,0,0,1,327.27,69Z" style="fill:#6f2cfe"/><path d="M408.46,127.05c-4.72-2.52-9.8-.79-14.57-.7a100.82,100.82,0,0,1-39.91-7.6c-13.8-5.53-26.27-13.23-36.52-24.2a4,4,0,0,0-3-1.49c0-2.88,1.11-5.44,2.28-8,1.5,0,2.41,1,3.29,2a95.3,95.3,0,0,0,34.43,24.47,103.77,103.77,0,0,0,43.43,8.27c4.57-.09,9.18-.87,13.82-.75C410.79,121.83,410.43,124.77,408.46,127.05Z" style="fill:#590cfe"/><path d="M316.92,123.21c6.29,1,10.87,5.45,16.16,8.35A129,129,0,0,0,378.14,146c3.27.45,6.56.79,9.62,2.13-18.51,12-47.25,7-62.43-11C321.79,133,318.5,128.6,316.92,123.21Z" style="fill:#3206fe"/><path d="M412.2,90.09c-13,3-26,2.92-38.78-1.07-13.18-4.11-24.89-10.68-34-21.38A50.92,50.92,0,0,0,334.28,63a20.33,20.33,0,0,1,8.2-4.83c2.51,3.26,4.75,6.76,8,9.36,17.35,13.8,36.76,19.32,58.72,14.59C409.3,85.1,412.35,87,412.2,90.09Z" style="fill:#844afe"/><path d="M352.4,54.88c17.85-5.54,40.62,2.89,51.88,19.21-11,2.47-21.75.86-31.91-3.32C364.36,67.48,356.62,63.23,352.4,54.88Z" style="fill:#9868fe"/><path d="M323.31,73.6a85.28,85.28,0,0,0,23,20.82,91.55,91.55,0,0,0,53.43,13.63c4.77-.23,9.47-1.54,14.3-1-.26,2-.51,4-.77,6-10.54.12-21,1.78-31.64.15-19.55-3-36.66-10.58-51.46-23.75-3.6-3.21-6.2-7.67-11-9.5A13.63,13.63,0,0,1,323.31,73.6Z" style="fill:#6821fe"/><path d="M319.18,80c4.81,1.83,7.41,6.29,11,9.5,14.8,13.17,31.91,20.74,51.46,23.75,10.66,1.63,21.1,0,31.64-.15a12.29,12.29,0,0,1-1.61,6c-4.64-.12-9.25.66-13.82.75a103.77,103.77,0,0,1-43.43-8.27A95.3,95.3,0,0,1,320,87.11c-.88-1-1.79-2-3.29-2A12.77,12.77,0,0,1,319.18,80Z" style="fill:#6117fe"/><path d="M352.4,54.88c4.22,8.35,12,12.6,20,15.89,10.16,4.18,20.9,5.79,31.91,3.32a23.39,23.39,0,0,1,5,8c-22,4.73-41.37-.79-58.72-14.59-3.28-2.6-5.52-6.1-8-9.36A21.37,21.37,0,0,1,352.4,54.88Z" style="fill:#8e5afe"/></svg>