<?xml version="1.0" encoding="UTF-8"?>
    <svg width="250" height="80" viewBox="0 0 250 80" fill="none" xmlns="http://www.w3.org/2000/svg">
    <rect width="250" height="80" rx="10" fill="#B8DFFF" fill-opacity="0.47"/>
    <g transform="translate(16.000000, 24.000000)">
      <g id="FP-new-logo-white" fill-rule="nonzero">
          <ellipse id="Oval" fill="#273653" cx="17.4998" cy="17.5" rx="17.4998" ry="17.5"></ellipse>
          <path d="M11.0859,20.6739 C11.0859,21.0237 11.3695,21.3073 11.7193,21.3073 L11.7193,21.3073 C14.0515,21.3073 15.9421,19.4167 15.9421,17.0845 L15.9421,12.8616 L15.9421,8.21663 C15.9421,7.86682 15.6585,7.58324 15.3087,7.58324 L15.3087,7.58324 C12.9765,7.58324 11.0859,9.47383 11.0859,11.806 L11.0859,20.6739 Z" id="Path" fill="#F8F8F8"></path>
          <path d="M11.0859,11.806 C11.0859,9.47383 12.9765,7.58324 15.3087,7.58324 L23.2263,7.58311 C24.6839,7.58311 25.8655,8.76473 25.8655,10.2223 C25.8655,11.68 24.6839,12.8616 23.2263,12.8616 L15.9421,12.8616 L13.514,12.8616 L12.1415,12.8616 C11.5585,12.8616 11.0859,12.389 11.0859,11.806 L11.0859,11.806 Z" id="Path" fill="#F8F8F8"></path>
          <path d="M11.0859,20.2517 C11.0859,17.9195 12.9765,16.0289 15.3087,16.0289 L19.637,16.0289 C21.0946,16.0289 22.2762,17.2105 22.2762,18.6681 L22.2762,18.6681 C22.2762,20.1258 21.0946,21.3074 19.637,21.3074 L11.0859,21.3074 L11.0859,20.2517 Z" id="Path" fill="#49ADFF"></path>
          <path d="M11,25.1392 C11,26.5968 12.1817,27.7784 13.6393,27.7784 L13.6393,27.7784 C15.0969,27.7784 16.2785,26.5968 16.2785,25.1392 L16.2785,25.1392 C16.2785,23.6816 15.0968,22.5 13.6392,22.5 L11,22.5 L11,25.1392 Z" id="Path" fill="#F8F8F8"></path>
      </g>
    </g>
    <path d="M68.4091 35V23.3636H75.3864V24.6136H69.8182V28.5455H74.8636V29.7955H69.8182V35H68.4091ZM80.6364 35.1818C79.7955 35.1818 79.0701 34.9962 78.4602 34.625C77.8542 34.25 77.3864 33.7273 77.0568 33.0568C76.7311 32.3826 76.5682 31.5985 76.5682 30.7045C76.5682 29.8106 76.7311 29.0227 77.0568 28.3409C77.3864 27.6553 77.8447 27.1212 78.4318 26.7386C79.0227 26.3523 79.7121 26.1591 80.5 26.1591C80.9545 26.1591 81.4034 26.2348 81.8466 26.3864C82.2898 26.5379 82.6932 26.7841 83.0568 27.125C83.4205 27.4621 83.7102 27.9091 83.9261 28.4659C84.142 29.0227 84.25 29.7083 84.25 30.5227V31.0909H77.5227V29.9318H82.8864C82.8864 29.4394 82.7879 29 82.5909 28.6136C82.3977 28.2273 82.1212 27.9223 81.7614 27.6989C81.4053 27.4754 80.9848 27.3636 80.5 27.3636C79.9659 27.3636 79.5038 27.4962 79.1136 27.7614C78.7273 28.0227 78.4299 28.3636 78.2216 28.7841C78.0133 29.2045 77.9091 29.6553 77.9091 30.1364V30.9091C77.9091 31.5682 78.0227 32.1269 78.25 32.5852C78.4811 33.0398 78.8011 33.3864 79.2102 33.625C79.6193 33.8598 80.0947 33.9773 80.6364 33.9773C80.9886 33.9773 81.3068 33.928 81.5909 33.8295C81.8788 33.7273 82.1269 33.5758 82.3352 33.375C82.5436 33.1705 82.7045 32.9167 82.8182 32.6136L84.1136 32.9773C83.9773 33.4167 83.7481 33.803 83.4261 34.1364C83.1042 34.4659 82.7064 34.7235 82.233 34.9091C81.7595 35.0909 81.2273 35.1818 80.6364 35.1818ZM88.858 35.2045C88.3049 35.2045 87.803 35.1004 87.3523 34.892C86.9015 34.6799 86.5436 34.375 86.2784 33.9773C86.0133 33.5758 85.8807 33.0909 85.8807 32.5227C85.8807 32.0227 85.9792 31.6174 86.1761 31.3068C86.3731 30.9924 86.6364 30.7462 86.9659 30.5682C87.2955 30.3902 87.6591 30.2576 88.0568 30.1705C88.4583 30.0795 88.8617 30.0076 89.267 29.9545C89.7973 29.8864 90.2273 29.8352 90.5568 29.8011C90.8902 29.7633 91.1326 29.7008 91.2841 29.6136C91.4394 29.5265 91.517 29.375 91.517 29.1591V29.1136C91.517 28.553 91.3636 28.1174 91.0568 27.8068C90.7538 27.4962 90.2936 27.3409 89.6761 27.3409C89.036 27.3409 88.5341 27.4811 88.1705 27.7614C87.8068 28.0417 87.5511 28.3409 87.4034 28.6591L86.1307 28.2045C86.358 27.6742 86.661 27.2614 87.0398 26.9659C87.4223 26.6667 87.839 26.4583 88.2898 26.3409C88.7443 26.2197 89.1913 26.1591 89.6307 26.1591C89.911 26.1591 90.233 26.1932 90.5966 26.2614C90.964 26.3258 91.3182 26.4602 91.6591 26.6648C92.0038 26.8693 92.2898 27.178 92.517 27.5909C92.7443 28.0038 92.858 28.5568 92.858 29.25V35H91.517V33.8182H91.4489C91.358 34.0076 91.2064 34.2102 90.9943 34.4261C90.7822 34.642 90.5 34.8258 90.1477 34.9773C89.7955 35.1288 89.3655 35.2045 88.858 35.2045ZM89.0625 34C89.5928 34 90.0398 33.8958 90.4034 33.6875C90.7708 33.4792 91.0473 33.2102 91.233 32.8807C91.4223 32.5511 91.517 32.2045 91.517 31.8409V30.6136C91.4602 30.6818 91.3352 30.7443 91.142 30.8011C90.9527 30.8542 90.733 30.9015 90.483 30.9432C90.2367 30.9811 89.9962 31.0152 89.7614 31.0455C89.5303 31.072 89.3428 31.0947 89.1989 31.1136C88.8504 31.1591 88.5246 31.233 88.2216 31.3352C87.9223 31.4337 87.6799 31.5833 87.4943 31.7841C87.3125 31.9811 87.2216 32.25 87.2216 32.5909C87.2216 33.0568 87.3939 33.4091 87.7386 33.6477C88.0871 33.8826 88.5284 34 89.0625 34ZM99.1009 26.2727V27.4091H94.5781V26.2727H99.1009ZM95.8963 24.1818H97.2372V32.5C97.2372 32.8788 97.2921 33.1629 97.402 33.3523C97.5156 33.5379 97.6596 33.6629 97.8338 33.7273C98.0118 33.7879 98.1993 33.8182 98.3963 33.8182C98.544 33.8182 98.6652 33.8106 98.7599 33.7955C98.8546 33.7765 98.9304 33.7614 98.9872 33.75L99.2599 34.9545C99.169 34.9886 99.0421 35.0227 98.8793 35.0568C98.7164 35.0947 98.5099 35.1136 98.2599 35.1136C97.8812 35.1136 97.5099 35.0322 97.1463 34.8693C96.7865 34.7064 96.4872 34.4583 96.2486 34.125C96.0137 33.7917 95.8963 33.3712 95.8963 32.8636V24.1818ZM106.618 31.4318V26.2727H107.959V35H106.618V33.5227H106.527C106.322 33.9659 106.004 34.3428 105.572 34.6534C105.141 34.9602 104.595 35.1136 103.936 35.1136C103.391 35.1136 102.906 34.9943 102.482 34.7557C102.057 34.5133 101.724 34.1496 101.482 33.6648C101.239 33.1761 101.118 32.5606 101.118 31.8182V26.2727H102.459V31.7273C102.459 32.3636 102.637 32.8712 102.993 33.25C103.353 33.6288 103.811 33.8182 104.368 33.8182C104.701 33.8182 105.04 33.733 105.385 33.5625C105.733 33.392 106.025 33.1307 106.26 32.7784C106.499 32.4261 106.618 31.9773 106.618 31.4318ZM110.415 35V26.2727H111.71V27.5909H111.801C111.96 27.1591 112.248 26.8087 112.665 26.5398C113.081 26.2708 113.551 26.1364 114.074 26.1364C114.172 26.1364 114.295 26.1383 114.443 26.142C114.591 26.1458 114.703 26.1515 114.778 26.1591V27.5227C114.733 27.5114 114.629 27.4943 114.466 27.4716C114.307 27.4451 114.138 27.4318 113.96 27.4318C113.536 27.4318 113.157 27.5208 112.824 27.6989C112.494 27.8731 112.233 28.1155 112.04 28.4261C111.85 28.733 111.756 29.0833 111.756 29.4773V35H110.415ZM119.761 35.1818C118.92 35.1818 118.195 34.9962 117.585 34.625C116.979 34.25 116.511 33.7273 116.182 33.0568C115.856 32.3826 115.693 31.5985 115.693 30.7045C115.693 29.8106 115.856 29.0227 116.182 28.3409C116.511 27.6553 116.97 27.1212 117.557 26.7386C118.148 26.3523 118.837 26.1591 119.625 26.1591C120.08 26.1591 120.528 26.2348 120.972 26.3864C121.415 26.5379 121.818 26.7841 122.182 27.125C122.545 27.4621 122.835 27.9091 123.051 28.4659C123.267 29.0227 123.375 29.7083 123.375 30.5227V31.0909H116.648V29.9318H122.011C122.011 29.4394 121.913 29 121.716 28.6136C121.523 28.2273 121.246 27.9223 120.886 27.6989C120.53 27.4754 120.11 27.3636 119.625 27.3636C119.091 27.3636 118.629 27.4962 118.239 27.7614C117.852 28.0227 117.555 28.3636 117.347 28.7841C117.138 29.2045 117.034 29.6553 117.034 30.1364V30.9091C117.034 31.5682 117.148 32.1269 117.375 32.5852C117.606 33.0398 117.926 33.3864 118.335 33.625C118.744 33.8598 119.22 33.9773 119.761 33.9773C120.114 33.9773 120.432 33.928 120.716 33.8295C121.004 33.7273 121.252 33.5758 121.46 33.375C121.669 33.1705 121.83 32.9167 121.943 32.6136L123.239 32.9773C123.102 33.4167 122.873 33.803 122.551 34.1364C122.229 34.4659 121.831 34.7235 121.358 34.9091C120.884 35.0909 120.352 35.1818 119.761 35.1818ZM128.71 35.1818C127.983 35.1818 127.341 34.9981 126.784 34.6307C126.227 34.2595 125.792 33.7367 125.477 33.0625C125.163 32.3845 125.006 31.5833 125.006 30.6591C125.006 29.7424 125.163 28.947 125.477 28.2727C125.792 27.5985 126.229 27.0777 126.79 26.7102C127.35 26.3428 127.998 26.1591 128.733 26.1591C129.301 26.1591 129.75 26.2538 130.08 26.4432C130.413 26.6288 130.667 26.8409 130.841 27.0795C131.019 27.3144 131.157 27.5076 131.256 27.6591H131.369V23.3636H132.71V35H131.415V33.6591H131.256C131.157 33.8182 131.017 34.0189 130.835 34.2614C130.653 34.5 130.394 34.714 130.057 34.9034C129.72 35.089 129.271 35.1818 128.71 35.1818ZM128.892 33.9773C129.43 33.9773 129.884 33.8371 130.256 33.5568C130.627 33.2727 130.909 32.8807 131.102 32.3807C131.295 31.8769 131.392 31.2955 131.392 30.6364C131.392 29.9848 131.297 29.4148 131.108 28.9261C130.919 28.4337 130.638 28.0511 130.267 27.7784C129.896 27.5019 129.438 27.3636 128.892 27.3636C128.324 27.3636 127.85 27.5095 127.472 27.8011C127.097 28.089 126.814 28.4811 126.625 28.9773C126.439 29.4697 126.347 30.0227 126.347 30.6364C126.347 31.2576 126.441 31.822 126.631 32.3295C126.824 32.8333 127.108 33.2348 127.483 33.5341C127.862 33.8295 128.331 33.9773 128.892 33.9773ZM143.398 35.1818C142.61 35.1818 141.919 34.9943 141.324 34.6193C140.733 34.2443 140.271 33.7197 139.938 33.0455C139.608 32.3712 139.443 31.5833 139.443 30.6818C139.443 29.7727 139.608 28.9792 139.938 28.3011C140.271 27.6231 140.733 27.0966 141.324 26.7216C141.919 26.3466 142.61 26.1591 143.398 26.1591C144.186 26.1591 144.875 26.3466 145.466 26.7216C146.061 27.0966 146.523 27.6231 146.852 28.3011C147.186 28.9792 147.352 29.7727 147.352 30.6818C147.352 31.5833 147.186 32.3712 146.852 33.0455C146.523 33.7197 146.061 34.2443 145.466 34.6193C144.875 34.9943 144.186 35.1818 143.398 35.1818ZM143.398 33.9773C143.996 33.9773 144.489 33.8239 144.875 33.517C145.261 33.2102 145.547 32.8068 145.733 32.3068C145.919 31.8068 146.011 31.2652 146.011 30.6818C146.011 30.0985 145.919 29.5549 145.733 29.0511C145.547 28.5473 145.261 28.1402 144.875 27.8295C144.489 27.5189 143.996 27.3636 143.398 27.3636C142.799 27.3636 142.307 27.5189 141.92 27.8295C141.534 28.1402 141.248 28.5473 141.062 29.0511C140.877 29.5549 140.784 30.0985 140.784 30.6818C140.784 31.2652 140.877 31.8068 141.062 32.3068C141.248 32.8068 141.534 33.2102 141.92 33.517C142.307 33.8239 142.799 33.9773 143.398 33.9773ZM150.74 29.75V35H149.399V26.2727H150.695V27.6364H150.808C151.013 27.1932 151.323 26.8371 151.74 26.5682C152.157 26.2955 152.695 26.1591 153.354 26.1591C153.945 26.1591 154.462 26.2803 154.905 26.5227C155.348 26.7614 155.693 27.125 155.939 27.6136C156.185 28.0985 156.308 28.7121 156.308 29.4545V35H154.967V29.5455C154.967 28.8598 154.789 28.3258 154.433 27.9432C154.077 27.5568 153.589 27.3636 152.967 27.3636C152.539 27.3636 152.157 27.4564 151.82 27.642C151.486 27.8277 151.223 28.0985 151.03 28.4545C150.837 28.8106 150.74 29.2424 150.74 29.75Z" fill="black"/>
    <g transform="translate(194.000000, 32.000000)" fill="#08a0e4">
      <text font-family="Helvetica-Bold, Helvetica" font-size="16" font-weight="medium" line-spacing="20">
        <tspan text-anchor="middle" x="24" y="27">814</tspan>
      </text>
    </g>
    <g clip-path="url(#clip1_667_270)">
    <mask id="mask0_667_270" style="mask-type:luminance" maskUnits="userSpaceOnUse" x="67" y="42" width="125" height="23">
    <path d="M192 42H67V65H192V42Z" fill="white"/>
    </mask>
    <g mask="url(#mask0_667_270)">
    <path d="M67 59.5866V42.4866H70.3268V59.5866H67ZM69.4461 52.5812V49.6379H78.1055V52.5812H69.4461ZM69.4461 45.4055V42.4866H78.5213V45.4055H69.4461Z" fill="#273653"/>
    <path d="M85.1045 59.8298C84.0608 59.8298 83.1313 59.6109 82.3159 59.1731C81.5169 58.7352 80.889 58.1271 80.4324 57.3487C79.9758 56.5704 79.7475 55.6704 79.7475 54.6488V47.8379H82.9764V54.5758C82.9764 55.0623 83.0579 55.4839 83.221 55.8406C83.3841 56.1812 83.6287 56.4406 83.9548 56.619C84.281 56.7974 84.6642 56.8866 85.1045 56.8866C85.7731 56.8866 86.295 56.6839 86.6701 56.2785C87.0451 55.8731 87.2327 55.3055 87.2327 54.5758V47.8379H90.4371V54.6488C90.4371 55.6866 90.2088 56.5947 89.7522 57.3731C89.3119 58.1515 88.6841 58.7596 87.8687 59.1974C87.0696 59.619 86.1482 59.8298 85.1045 59.8298Z" fill="#273653"/>
    <path d="M93.9919 59.5866V42.9487H97.1963V59.5866H93.9919ZM91.2277 50.6352V47.8379H99.9605V50.6352H91.2277Z" fill="#273653"/>
    <path d="M106.068 59.8298C105.024 59.8298 104.095 59.6109 103.279 59.1731C102.48 58.7352 101.852 58.1271 101.396 57.3487C100.939 56.5704 100.711 55.6704 100.711 54.6488V47.8379H103.94V54.5758C103.94 55.0623 104.021 55.4839 104.184 55.8406C104.347 56.1812 104.592 56.4406 104.918 56.619C105.244 56.7974 105.627 56.8866 106.068 56.8866C106.736 56.8866 107.258 56.6839 107.633 56.2785C108.008 55.8731 108.196 55.3055 108.196 54.5758V47.8379H111.4V54.6488C111.4 55.6866 111.172 56.5947 110.715 57.3731C110.275 58.1515 109.647 58.7596 108.832 59.1974C108.033 59.619 107.111 59.8298 106.068 59.8298Z" fill="#273653"/>
    <path d="M113.218 59.5864V47.8377H116.423V59.5864H113.218ZM116.423 53.0918L115.175 52.2648C115.322 50.8215 115.746 49.6864 116.447 48.8593C117.148 48.0161 118.16 47.5945 119.48 47.5945C120.051 47.5945 120.565 47.6918 121.022 47.8864C121.478 48.0648 121.894 48.3648 122.269 48.7864L120.263 51.0729C120.084 50.8783 119.864 50.7323 119.603 50.635C119.358 50.5377 119.073 50.4891 118.747 50.4891C118.062 50.4891 117.499 50.708 117.059 51.1458C116.635 51.5675 116.423 52.2161 116.423 53.0918Z" fill="#273653"/>
    <path d="M127.977 59.8297C126.738 59.8297 125.637 59.5703 124.675 59.0514C123.713 58.5162 122.946 57.7865 122.375 56.8622C121.821 55.9378 121.544 54.8838 121.544 53.7C121.544 52.5324 121.813 51.4946 122.351 50.5865C122.905 49.6622 123.655 48.9325 124.601 48.3973C125.547 47.846 126.599 47.5703 127.757 47.5703C128.898 47.5703 129.901 47.8298 130.766 48.3487C131.646 48.8514 132.331 49.5487 132.82 50.4406C133.326 51.3163 133.579 52.3135 133.579 53.4324C133.579 53.6432 133.562 53.8622 133.53 54.0892C133.514 54.3 133.473 54.5432 133.408 54.8189L123.476 54.8432V52.4595L131.915 52.4351L130.619 53.4324C130.586 52.7351 130.456 52.1514 130.228 51.6811C130.016 51.2109 129.697 50.8541 129.273 50.6109C128.866 50.3514 128.36 50.2217 127.757 50.2217C127.121 50.2217 126.566 50.3676 126.093 50.6595C125.621 50.9352 125.254 51.3325 124.993 51.8514C124.748 52.3541 124.626 52.9541 124.626 53.6514C124.626 54.3649 124.756 54.9892 125.017 55.5243C125.294 56.0432 125.686 56.4487 126.191 56.7405C126.697 57.0162 127.284 57.1541 127.953 57.1541C128.556 57.1541 129.102 57.0568 129.591 56.8622C130.081 56.6514 130.505 56.3432 130.863 55.9378L132.747 57.8108C132.176 58.4757 131.475 58.9784 130.643 59.3189C129.828 59.6595 128.939 59.8297 127.977 59.8297Z" fill="#273653"/>
    <path d="M141.382 59.8296C140.534 59.8296 139.768 59.6594 139.083 59.3188C138.398 58.9621 137.852 58.4837 137.444 57.8837C137.036 57.2837 136.816 56.5945 136.784 55.8161V51.6566C136.816 50.8783 137.036 50.1891 137.444 49.5891C137.868 48.9729 138.414 48.4864 139.083 48.1296C139.768 47.7729 140.534 47.5945 141.382 47.5945C142.475 47.5945 143.453 47.862 144.318 48.3972C145.182 48.9323 145.859 49.662 146.348 50.5864C146.853 51.5107 147.106 52.5567 147.106 53.7242C147.106 54.8756 146.853 55.9134 146.348 56.8377C145.859 57.7621 145.182 58.4918 144.318 59.0269C143.453 59.5621 142.475 59.8296 141.382 59.8296ZM140.82 56.8864C141.407 56.8864 141.929 56.7567 142.385 56.4972C142.842 56.2215 143.193 55.8485 143.437 55.3783C143.698 54.8918 143.828 54.3323 143.828 53.6999C143.828 53.0837 143.698 52.5404 143.437 52.0702C143.193 51.5837 142.842 51.2107 142.385 50.9512C141.929 50.6756 141.407 50.5377 140.82 50.5377C140.249 50.5377 139.735 50.6756 139.279 50.9512C138.822 51.2107 138.463 51.5837 138.202 52.0702C137.958 52.5404 137.835 53.0837 137.835 53.6999C137.835 54.3323 137.958 54.8918 138.202 55.3783C138.463 55.8485 138.814 56.2215 139.254 56.4972C139.711 56.7567 140.233 56.8864 140.82 56.8864ZM134.827 64.4999V47.8377H138.031V50.9269L137.493 53.7729L138.007 56.6188V64.4999H134.827Z" fill="#273653"/>
    <path d="M154.124 59.8297C152.885 59.8297 151.784 59.5703 150.822 59.0514C149.86 58.5162 149.093 57.7865 148.522 56.8622C147.968 55.9378 147.691 54.8838 147.691 53.7C147.691 52.5324 147.96 51.4946 148.498 50.5865C149.052 49.6622 149.803 48.9325 150.748 48.3973C151.694 47.846 152.746 47.5703 153.904 47.5703C155.045 47.5703 156.048 47.8298 156.913 48.3487C157.793 48.8514 158.478 49.5487 158.967 50.4406C159.473 51.3163 159.726 52.3135 159.726 53.4324C159.726 53.6432 159.709 53.8622 159.677 54.0892C159.661 54.3 159.62 54.5432 159.555 54.8189L149.623 54.8432V52.4595L158.062 52.4351L156.766 53.4324C156.733 52.7351 156.603 52.1514 156.375 51.6811C156.163 51.2109 155.845 50.8541 155.421 50.6109C155.013 50.3514 154.507 50.2217 153.904 50.2217C153.268 50.2217 152.713 50.3676 152.241 50.6595C151.768 50.9352 151.401 51.3325 151.14 51.8514C150.895 52.3541 150.773 52.9541 150.773 53.6514C150.773 54.3649 150.903 54.9892 151.164 55.5243C151.441 56.0432 151.833 56.4487 152.338 56.7405C152.844 57.0162 153.431 57.1541 154.1 57.1541C154.703 57.1541 155.249 57.0568 155.739 56.8622C156.228 56.6514 156.652 56.3432 157.011 55.9378L158.894 57.8108C158.323 58.4757 157.622 58.9784 156.79 59.3189C155.975 59.6595 155.086 59.8297 154.124 59.8297Z" fill="#273653"/>
    <path d="M165.964 59.8297C164.871 59.8297 163.893 59.5622 163.028 59.027C162.164 58.4919 161.479 57.7622 160.974 56.8378C160.484 55.9135 160.24 54.8757 160.24 53.7243C160.24 52.5568 160.484 51.5108 160.974 50.5865C161.479 49.6622 162.156 48.9324 163.004 48.3973C163.868 47.8622 164.855 47.5946 165.964 47.5946C166.812 47.5946 167.57 47.7649 168.239 48.1054C168.924 48.446 169.47 48.9243 169.878 49.5405C170.302 50.1405 170.53 50.8216 170.563 51.5838V55.7676C170.53 56.5297 170.31 57.2189 169.902 57.8351C169.494 58.4514 168.948 58.9378 168.263 59.2946C167.578 59.6514 166.812 59.8297 165.964 59.8297ZM166.502 56.8865C167.105 56.8865 167.627 56.7568 168.067 56.4973C168.524 56.2216 168.875 55.8486 169.119 55.3784C169.38 54.8919 169.511 54.3324 169.511 53.7C169.511 53.0838 169.38 52.5405 169.119 52.0703C168.875 51.5838 168.524 51.2108 168.067 50.9514C167.627 50.6757 167.113 50.5378 166.526 50.5378C165.923 50.5378 165.393 50.6757 164.936 50.9514C164.496 51.227 164.146 51.6 163.885 52.0703C163.64 52.5405 163.518 53.0838 163.518 53.7C163.518 54.3324 163.64 54.8919 163.885 55.3784C164.146 55.8486 164.504 56.2216 164.961 56.4973C165.418 56.7568 165.931 56.8865 166.502 56.8865ZM172.519 59.5865H169.339V56.4243L169.853 53.5541L169.315 50.7324V42H172.519V59.5865Z" fill="#273653"/>
    <path d="M174.62 59.5866V47.8379H177.849V59.5866H174.62Z" fill="#273653"/>
    <path d="M184.895 59.8296C183.819 59.8296 182.849 59.5621 181.984 59.0269C181.12 58.4918 180.443 57.7621 179.954 56.8377C179.465 55.9134 179.22 54.8756 179.22 53.7242C179.22 52.5567 179.465 51.5107 179.954 50.5864C180.443 49.662 181.12 48.9323 181.984 48.3972C182.849 47.862 183.819 47.5945 184.895 47.5945C185.743 47.5945 186.502 47.7648 187.17 48.1053C187.839 48.4458 188.369 48.9242 188.76 49.5404C189.168 50.1404 189.388 50.8215 189.421 51.5837V55.8161C189.388 56.5945 189.168 57.2837 188.76 57.8837C188.369 58.4837 187.839 58.9621 187.17 59.3188C186.502 59.6594 185.743 59.8296 184.895 59.8296ZM185.482 56.8864C186.379 56.8864 187.105 56.5945 187.66 56.0107C188.214 55.4107 188.491 54.6404 188.491 53.6999C188.491 53.0837 188.361 52.5404 188.1 52.0702C187.855 51.5837 187.505 51.2107 187.048 50.9512C186.608 50.6756 186.086 50.5377 185.482 50.5377C184.895 50.5377 184.374 50.6756 183.917 50.9512C183.477 51.2107 183.126 51.5837 182.865 52.0702C182.62 52.5404 182.498 53.0837 182.498 53.6999C182.498 54.3323 182.62 54.8918 182.865 55.3783C183.126 55.8485 183.477 56.2215 183.917 56.4972C184.374 56.7567 184.895 56.8864 185.482 56.8864ZM188.32 59.5864V56.4242L188.834 53.554L188.32 50.7323V47.8377H191.5V59.5864H188.32Z" fill="#273653"/>
    <path d="M178 45C178 45.8284 177.328 46.5 176.5 46.5C175.672 46.5 175 45.8284 175 45C175 44.1716 175.672 43.5 176.5 43.5C177.328 43.5 178 44.1716 178 45Z" fill="#49ADFF" fill-opacity="0.2"/>
    <path d="M176.5 46.5C175.672 46.5 175 45.8284 175 45V46.5H176.5Z" fill="#49ADFF" fill-opacity="0.2"/>
    </g>
    </g>
    <g transform="translate(-6.000000, 0.000000)" fill="#38bdf8">
      <path d="M229.833 39.5L224 36.1667L218.167 39.5V26.1667C218.167 25.7246 218.342 25.3007 218.655 24.9882C218.967 24.6756 219.391 24.5 219.833 24.5H228.167C228.609 24.5 229.033 24.6756 229.345 24.9882C229.658 25.3007 229.833 25.7246 229.833 26.1667V39.5Z" fill="#808080" stroke="#808080" stroke-width="2" stroke-linecap="round" stroke-linejoin="round"/>
    </g>
    <defs>
    <clipPath id="clip0_667_270">
    <rect width="35" height="35" fill="white" transform="translate(17 22)"/>
    </clipPath>
    <clipPath id="clip1_667_270">
    <rect width="125" height="23" fill="white" transform="translate(67 42)"/>
    </clipPath>
    </defs>
    </svg>
    